<mxfile host="app.diagrams.net" agent="Mozilla/5.0 (Macintosh; Intel Mac OS X 10_15_7) AppleWebKit/537.36 (KHTML, like Gecko) Chrome/130.0.0.0 Safari/537.36" version="24.8.6">
  <diagram name="Page-1" id="AkCjVDO_uzy1nS7zIf3j">
    <mxGraphModel dx="1424" dy="788" grid="1" gridSize="10" guides="1" tooltips="1" connect="1" arrows="1" fold="1" page="1" pageScale="1" pageWidth="850" pageHeight="1100" math="0" shadow="0">
      <root>
        <mxCell id="0" />
        <mxCell id="1" parent="0" />
        <mxCell id="GwiYG9CLarDi_SklE6N5-1" value="" style="whiteSpace=wrap;html=1;aspect=fixed;fillColor=#d5e8d4;strokeColor=#82b366;" vertex="1" parent="1">
          <mxGeometry x="210" y="140" width="190" height="190" as="geometry" />
        </mxCell>
        <mxCell id="GwiYG9CLarDi_SklE6N5-2" value="" style="whiteSpace=wrap;html=1;aspect=fixed;fillColor=#f8cecc;strokeColor=#b85450;" vertex="1" parent="1">
          <mxGeometry x="483" y="135" width="250" height="250" as="geometry" />
        </mxCell>
        <mxCell id="GwiYG9CLarDi_SklE6N5-4" value="On-chip, Trusted" style="text;strokeColor=none;fillColor=none;html=1;fontSize=15;fontStyle=1;verticalAlign=middle;align=center;" vertex="1" parent="1">
          <mxGeometry x="250" y="100" width="100" height="40" as="geometry" />
        </mxCell>
        <mxCell id="GwiYG9CLarDi_SklE6N5-5" value="Physical memory, Untrusted" style="text;strokeColor=none;fillColor=none;html=1;fontSize=18;fontStyle=1;verticalAlign=middle;align=center;" vertex="1" parent="1">
          <mxGeometry x="560" y="100" width="100" height="40" as="geometry" />
        </mxCell>
        <mxCell id="GwiYG9CLarDi_SklE6N5-8" value="LLC" style="rounded=0;whiteSpace=wrap;html=1;rotation=-90;" vertex="1" parent="1">
          <mxGeometry x="180" y="230" width="120" height="60" as="geometry" />
        </mxCell>
        <mxCell id="GwiYG9CLarDi_SklE6N5-9" value="Memory Controller with Secure Memory" style="rounded=0;whiteSpace=wrap;html=1;rotation=-90;verticalAlign=top;" vertex="1" parent="1">
          <mxGeometry x="290" y="210" width="120" height="100" as="geometry" />
        </mxCell>
        <mxCell id="GwiYG9CLarDi_SklE6N5-10" value="Root of Bonsai Merkle Tree" style="ellipse;whiteSpace=wrap;html=1;fontSize=10;fillColor=#1a7915;strokeColor=#82b366;fontColor=#FFFFFF;" vertex="1" parent="1">
          <mxGeometry x="310" y="140" width="80" height="40" as="geometry" />
        </mxCell>
        <mxCell id="GwiYG9CLarDi_SklE6N5-14" value="" style="endArrow=classic;startArrow=classic;html=1;rounded=0;entryX=0.5;entryY=1;entryDx=0;entryDy=0;exitX=1;exitY=0.5;exitDx=0;exitDy=0;" edge="1" parent="1" source="GwiYG9CLarDi_SklE6N5-9" target="GwiYG9CLarDi_SklE6N5-10">
          <mxGeometry width="50" height="50" relative="1" as="geometry">
            <mxPoint x="400" y="380" as="sourcePoint" />
            <mxPoint x="450" y="330" as="targetPoint" />
          </mxGeometry>
        </mxCell>
        <mxCell id="GwiYG9CLarDi_SklE6N5-16" value="AES Engine" style="rounded=0;whiteSpace=wrap;html=1;" vertex="1" parent="1">
          <mxGeometry x="350" y="270" width="50" height="30" as="geometry" />
        </mxCell>
        <mxCell id="GwiYG9CLarDi_SklE6N5-17" value="Sec Mem Logic" style="rounded=0;whiteSpace=wrap;html=1;" vertex="1" parent="1">
          <mxGeometry x="350" y="200" width="50" height="45" as="geometry" />
        </mxCell>
        <mxCell id="GwiYG9CLarDi_SklE6N5-18" value="" style="endArrow=classic;startArrow=classic;html=1;rounded=0;entryX=0.5;entryY=1;entryDx=0;entryDy=0;" edge="1" parent="1" source="GwiYG9CLarDi_SklE6N5-16" target="GwiYG9CLarDi_SklE6N5-17">
          <mxGeometry width="50" height="50" relative="1" as="geometry">
            <mxPoint x="10" y="270" as="sourcePoint" />
            <mxPoint x="60" y="220" as="targetPoint" />
          </mxGeometry>
        </mxCell>
        <mxCell id="GwiYG9CLarDi_SklE6N5-20" value="L1,0&lt;span style=&quot;color: rgba(0, 0, 0, 0); font-family: monospace; font-size: 0px; text-align: start; text-wrap-mode: nowrap;&quot;&gt;%3CmxGraphModel%3E%3Croot%3E%3CmxCell%20id%3D%220%22%2F%3E%3CmxCell%20id%3D%221%22%20parent%3D%220%22%2F%3E%3CmxCell%20id%3D%222%22%20value%3D%22AES%20Engine%22%20style%3D%22rounded%3D0%3BwhiteSpace%3Dwrap%3Bhtml%3D1%3B%22%20vertex%3D%221%22%20parent%3D%221%22%3E%3CmxGeometry%20x%3D%22350%22%20y%3D%22290%22%20width%3D%2250%22%20height%3D%2230%22%20as%3D%22geometry%22%2F%3E%3C%2FmxCell%3E%3C%2Froot%3E%3C%2FmxGraphModel%32&lt;/span&gt;" style="ellipse;whiteSpace=wrap;html=1;" vertex="1" parent="1">
          <mxGeometry x="492" y="160" width="50" height="20" as="geometry" />
        </mxCell>
        <mxCell id="GwiYG9CLarDi_SklE6N5-21" value="L1,1&lt;span style=&quot;color: rgba(0, 0, 0, 0); font-family: monospace; font-size: 0px; text-align: start; text-wrap-mode: nowrap;&quot;&gt;%3CmxGraphModel%3E%3Croot%3E%3CmxCell%20id%3D%220%22%2F%3E%3CmxCell%20id%3D%221%22%20parent%3D%220%22%2F%3E%3CmxCell%20id%3D%222%22%20value%3D%22AES%20Engine%22%20style%3D%22rounded%3D0%3BwhiteSpace%3Dwrap%3Bhtml%3D1%3B%22%20vertex%3D%221%22%20parent%3D%221%22%3E%3CmxGeometry%20x%3D%22350%22%20y%3D%22290%22%20width%3D%2250%22%20height%3D%2230%22%20as%3D%22geometry%22%2F%3E%3C%2FmxCell%3E%3C%2Froot%3E%3C%2FmxGraphModel%3E&lt;/span&gt;" style="ellipse;whiteSpace=wrap;html=1;" vertex="1" parent="1">
          <mxGeometry x="492" y="200" width="50" height="20" as="geometry" />
        </mxCell>
        <mxCell id="GwiYG9CLarDi_SklE6N5-22" value="L2,0&lt;span style=&quot;color: rgba(0, 0, 0, 0); font-family: monospace; font-size: 0px; text-align: start; text-wrap-mode: nowrap;&quot;&gt;%3CmxGraphModel%3E%3Croot%3E%3CmxCell%20id%3D%220%22%2F%3E%3CmxCell%20id%3D%221%22%20parent%3D%220%22%2F%3E%3CmxCell%20id%3D%222%22%20value%3D%22AES%20Engine%22%20style%3D%22rounded%3D0%3BwhiteSpace%3Dwrap%3Bhtml%3D1%3B%22%20vertex%3D%221%22%20parent%3D%221%22%3E%3CmxGeometry%20x%3D%22350%22%20y%3D%22290%22%20width%3D%2250%22%20height%3D%2230%22%20as%3D%22geometry%22%2F%3E%3C%2FmxCell%3E%3C%2Froot%3E%3C%2FmxGraphModel%32&lt;/span&gt;" style="ellipse;whiteSpace=wrap;html=1;" vertex="1" parent="1">
          <mxGeometry x="552" y="150" width="50" height="20" as="geometry" />
        </mxCell>
        <mxCell id="GwiYG9CLarDi_SklE6N5-23" value="L2,1&lt;span style=&quot;color: rgba(0, 0, 0, 0); font-family: monospace; font-size: 0px; text-align: start; text-wrap-mode: nowrap;&quot;&gt;%3CmxGraphModel%3E%3Croot%3E%3CmxCell%20id%3D%220%22%2F%3E%3CmxCell%20id%3D%221%22%20parent%3D%220%22%2F%3E%3CmxCell%20id%3D%222%22%20value%3D%22AES%20Engine%22%20style%3D%22rounded%3D0%3BwhiteSpace%3Dwrap%3Bhtml%3D1%3B%22%20vertex%3D%221%22%20parent%3D%221%22%3E%3CmxGeometry%20x%3D%22350%22%20y%3D%22290%22%20width%3D%2250%22%20height%3D%2230%22%20as%3D%22geometry%22%2F%3E%3C%2FmxCell%3E%3C%2Froot%3E%3C%2FmxGraphModel%3E&lt;/span&gt;" style="ellipse;whiteSpace=wrap;html=1;" vertex="1" parent="1">
          <mxGeometry x="552" y="170" width="50" height="20" as="geometry" />
        </mxCell>
        <mxCell id="GwiYG9CLarDi_SklE6N5-24" value="L2,2&lt;span style=&quot;color: rgba(0, 0, 0, 0); font-family: monospace; font-size: 0px; text-align: start; text-wrap-mode: nowrap;&quot;&gt;%3CmxGraphModel%3E%3Croot%3E%3CmxCell%20id%3D%220%22%2F%3E%3CmxCell%20id%3D%221%22%20parent%3D%220%22%2F%3E%3CmxCell%20id%3D%222%22%20value%3D%22AES%20Engine%22%20style%3D%22rounded%3D0%3BwhiteSpace%3Dwrap%3Bhtml%3D1%3B%22%20vertex%3D%221%22%20parent%3D%221%22%3E%3CmxGeometry%20x%3D%22350%22%20y%3D%22290%22%20width%3D%2250%22%20height%3D%2230%22%20as%3D%22geometry%22%2F%3E%3C%2FmxCell%3E%3C%2Froot%3E%3C%2FmxGraphModel%3&lt;/span&gt;" style="ellipse;whiteSpace=wrap;html=1;" vertex="1" parent="1">
          <mxGeometry x="552" y="190" width="50" height="20" as="geometry" />
        </mxCell>
        <mxCell id="GwiYG9CLarDi_SklE6N5-25" value="L2,3&lt;span style=&quot;color: rgba(0, 0, 0, 0); font-family: monospace; font-size: 0px; text-align: start; text-wrap-mode: nowrap;&quot;&gt;%3CmxGraphModel%3E%3Croot%3E%3CmxCell%20id%3D%220%22%2F%3E%3CmxCell%20id%3D%221%22%20parent%3D%220%22%2F%3E%3CmxCell%20id%3D%222%22%20value%3D%22AES%20Engine%22%20style%3D%22rounded%3D0%3BwhiteSpace%3Dwrap%3Bhtml%3D1%3B%22%20vertex%3D%221%22%20parent%3D%221%22%3E%3CmxGeometry%20x%3D%22350%22%20y%3D%22290%22%20width%3D%2250%22%20height%3D%2230%22%20as%3D%22geometry%22%2F%3E%3C%2FmxCell%3E%3C%2Froot%3E%3C%2FmxGraphModel%32&lt;/span&gt;" style="ellipse;whiteSpace=wrap;html=1;" vertex="1" parent="1">
          <mxGeometry x="552" y="210" width="50" height="20" as="geometry" />
        </mxCell>
        <mxCell id="GwiYG9CLarDi_SklE6N5-27" value="" style="endArrow=none;html=1;rounded=0;entryX=0;entryY=0.5;entryDx=0;entryDy=0;exitX=1;exitY=0;exitDx=0;exitDy=0;" edge="1" parent="1" source="GwiYG9CLarDi_SklE6N5-20" target="GwiYG9CLarDi_SklE6N5-22">
          <mxGeometry width="50" height="50" relative="1" as="geometry">
            <mxPoint x="-118" y="290" as="sourcePoint" />
            <mxPoint x="-68" y="240" as="targetPoint" />
          </mxGeometry>
        </mxCell>
        <mxCell id="GwiYG9CLarDi_SklE6N5-28" value="" style="endArrow=none;html=1;rounded=0;entryX=0;entryY=0.5;entryDx=0;entryDy=0;exitX=1;exitY=1;exitDx=0;exitDy=0;" edge="1" parent="1" source="GwiYG9CLarDi_SklE6N5-20" target="GwiYG9CLarDi_SklE6N5-23">
          <mxGeometry width="50" height="50" relative="1" as="geometry">
            <mxPoint x="545" y="173" as="sourcePoint" />
            <mxPoint x="562" y="170" as="targetPoint" />
          </mxGeometry>
        </mxCell>
        <mxCell id="GwiYG9CLarDi_SklE6N5-29" value="" style="endArrow=none;html=1;rounded=0;entryX=0;entryY=0.5;entryDx=0;entryDy=0;exitX=1;exitY=0;exitDx=0;exitDy=0;" edge="1" parent="1">
          <mxGeometry width="50" height="50" relative="1" as="geometry">
            <mxPoint x="536" y="204" as="sourcePoint" />
            <mxPoint x="553" y="201" as="targetPoint" />
          </mxGeometry>
        </mxCell>
        <mxCell id="GwiYG9CLarDi_SklE6N5-30" value="" style="endArrow=none;html=1;rounded=0;entryX=0;entryY=0.5;entryDx=0;entryDy=0;exitX=1;exitY=1;exitDx=0;exitDy=0;" edge="1" parent="1">
          <mxGeometry width="50" height="50" relative="1" as="geometry">
            <mxPoint x="536" y="218" as="sourcePoint" />
            <mxPoint x="553" y="221" as="targetPoint" />
          </mxGeometry>
        </mxCell>
        <mxCell id="GwiYG9CLarDi_SklE6N5-31" value="C0" style="ellipse;whiteSpace=wrap;html=1;" vertex="1" parent="1">
          <mxGeometry x="610" y="151" width="50" height="20" as="geometry" />
        </mxCell>
        <mxCell id="GwiYG9CLarDi_SklE6N5-32" value="C1" style="ellipse;whiteSpace=wrap;html=1;" vertex="1" parent="1">
          <mxGeometry x="610" y="171" width="50" height="20" as="geometry" />
        </mxCell>
        <mxCell id="GwiYG9CLarDi_SklE6N5-33" value="C2" style="ellipse;whiteSpace=wrap;html=1;" vertex="1" parent="1">
          <mxGeometry x="610" y="191" width="50" height="20" as="geometry" />
        </mxCell>
        <mxCell id="GwiYG9CLarDi_SklE6N5-34" value="C3" style="ellipse;whiteSpace=wrap;html=1;" vertex="1" parent="1">
          <mxGeometry x="610" y="211" width="50" height="20" as="geometry" />
        </mxCell>
        <mxCell id="GwiYG9CLarDi_SklE6N5-35" value="H0" style="ellipse;whiteSpace=wrap;html=1;" vertex="1" parent="1">
          <mxGeometry x="670" y="151" width="50" height="20" as="geometry" />
        </mxCell>
        <mxCell id="GwiYG9CLarDi_SklE6N5-36" value="H1" style="ellipse;whiteSpace=wrap;html=1;" vertex="1" parent="1">
          <mxGeometry x="670" y="171" width="50" height="20" as="geometry" />
        </mxCell>
        <mxCell id="GwiYG9CLarDi_SklE6N5-37" value="H2" style="ellipse;whiteSpace=wrap;html=1;" vertex="1" parent="1">
          <mxGeometry x="670" y="191" width="50" height="20" as="geometry" />
        </mxCell>
        <mxCell id="GwiYG9CLarDi_SklE6N5-38" value="H3" style="ellipse;whiteSpace=wrap;html=1;" vertex="1" parent="1">
          <mxGeometry x="670" y="211" width="50" height="20" as="geometry" />
        </mxCell>
        <mxCell id="GwiYG9CLarDi_SklE6N5-39" value="D0" style="ellipse;whiteSpace=wrap;html=1;" vertex="1" parent="1">
          <mxGeometry x="502" y="265" width="50" height="20" as="geometry" />
        </mxCell>
        <mxCell id="GwiYG9CLarDi_SklE6N5-40" value="D1" style="ellipse;whiteSpace=wrap;html=1;" vertex="1" parent="1">
          <mxGeometry x="502" y="285" width="50" height="20" as="geometry" />
        </mxCell>
        <mxCell id="GwiYG9CLarDi_SklE6N5-41" value="D2" style="ellipse;whiteSpace=wrap;html=1;" vertex="1" parent="1">
          <mxGeometry x="502" y="305" width="50" height="20" as="geometry" />
        </mxCell>
        <mxCell id="GwiYG9CLarDi_SklE6N5-42" value="D3" style="ellipse;whiteSpace=wrap;html=1;" vertex="1" parent="1">
          <mxGeometry x="502" y="325" width="50" height="20" as="geometry" />
        </mxCell>
        <mxCell id="GwiYG9CLarDi_SklE6N5-43" value="D4" style="ellipse;whiteSpace=wrap;html=1;" vertex="1" parent="1">
          <mxGeometry x="560" y="265" width="50" height="20" as="geometry" />
        </mxCell>
        <mxCell id="GwiYG9CLarDi_SklE6N5-44" value="D5" style="ellipse;whiteSpace=wrap;html=1;" vertex="1" parent="1">
          <mxGeometry x="560" y="285" width="50" height="20" as="geometry" />
        </mxCell>
        <mxCell id="GwiYG9CLarDi_SklE6N5-45" value="D6" style="ellipse;whiteSpace=wrap;html=1;" vertex="1" parent="1">
          <mxGeometry x="560" y="305" width="50" height="20" as="geometry" />
        </mxCell>
        <mxCell id="GwiYG9CLarDi_SklE6N5-46" value="D7" style="ellipse;whiteSpace=wrap;html=1;" vertex="1" parent="1">
          <mxGeometry x="560" y="325" width="50" height="20" as="geometry" />
        </mxCell>
        <mxCell id="GwiYG9CLarDi_SklE6N5-51" value="D8" style="ellipse;whiteSpace=wrap;html=1;" vertex="1" parent="1">
          <mxGeometry x="612" y="265" width="50" height="20" as="geometry" />
        </mxCell>
        <mxCell id="GwiYG9CLarDi_SklE6N5-52" value="D9" style="ellipse;whiteSpace=wrap;html=1;" vertex="1" parent="1">
          <mxGeometry x="612" y="285" width="50" height="20" as="geometry" />
        </mxCell>
        <mxCell id="GwiYG9CLarDi_SklE6N5-53" value="D10" style="ellipse;whiteSpace=wrap;html=1;" vertex="1" parent="1">
          <mxGeometry x="612" y="305" width="50" height="20" as="geometry" />
        </mxCell>
        <mxCell id="GwiYG9CLarDi_SklE6N5-54" value="D11" style="ellipse;whiteSpace=wrap;html=1;" vertex="1" parent="1">
          <mxGeometry x="612" y="325" width="50" height="20" as="geometry" />
        </mxCell>
        <mxCell id="GwiYG9CLarDi_SklE6N5-55" value="D12" style="ellipse;whiteSpace=wrap;html=1;" vertex="1" parent="1">
          <mxGeometry x="670" y="265" width="50" height="20" as="geometry" />
        </mxCell>
        <mxCell id="GwiYG9CLarDi_SklE6N5-56" value="D13" style="ellipse;whiteSpace=wrap;html=1;" vertex="1" parent="1">
          <mxGeometry x="670" y="285" width="50" height="20" as="geometry" />
        </mxCell>
        <mxCell id="GwiYG9CLarDi_SklE6N5-57" value="D14" style="ellipse;whiteSpace=wrap;html=1;" vertex="1" parent="1">
          <mxGeometry x="670" y="305" width="50" height="20" as="geometry" />
        </mxCell>
        <mxCell id="GwiYG9CLarDi_SklE6N5-58" value="D15" style="ellipse;whiteSpace=wrap;html=1;" vertex="1" parent="1">
          <mxGeometry x="670" y="325" width="50" height="20" as="geometry" />
        </mxCell>
        <mxCell id="GwiYG9CLarDi_SklE6N5-59" value="" style="endArrow=classic;startArrow=classic;html=1;rounded=0;exitX=0.5;exitY=1;exitDx=0;exitDy=0;" edge="1" parent="1" source="GwiYG9CLarDi_SklE6N5-9">
          <mxGeometry width="50" height="50" relative="1" as="geometry">
            <mxPoint x="140" y="280" as="sourcePoint" />
            <mxPoint x="480" y="260" as="targetPoint" />
          </mxGeometry>
        </mxCell>
        <mxCell id="GwiYG9CLarDi_SklE6N5-60" value="" style="endArrow=classic;startArrow=classic;html=1;rounded=0;exitX=0.5;exitY=1;exitDx=0;exitDy=0;entryX=0.5;entryY=0;entryDx=0;entryDy=0;" edge="1" parent="1" source="GwiYG9CLarDi_SklE6N5-8" target="GwiYG9CLarDi_SklE6N5-9">
          <mxGeometry width="50" height="50" relative="1" as="geometry">
            <mxPoint x="260" y="270" as="sourcePoint" />
            <mxPoint x="290" y="270" as="targetPoint" />
          </mxGeometry>
        </mxCell>
      </root>
    </mxGraphModel>
  </diagram>
</mxfile>
